Coordinates
version=1
nRows=22
nColumns=24
inDegrees=yes

Units are S.I. units (second, meters, Newtons, ...)
Angles are in degrees.

endheader
time	pelvis_tilt	pelvis_list	pelvis_rotation	pelvis_tx	pelvis_ty	pelvis_tz	hip_flexion_r	hip_adduction_r	hip_rotation_r	knee_angle_r	ankle_angle_r	subtalar_angle_r	mtp_angle_r	hip_flexion_l	hip_adduction_l	hip_rotation_l	knee_angle_l	ankle_angle_l	subtalar_angle_l	mtp_angle_l	lumbar_extension	lumbar_bending	lumbar_rotation
      3.22500000	    -11.75726993	      2.71145732	      2.17848678	     -1.41153911	     -0.01084003	      0.40667473	     37.46693004	     -5.40105091	     -3.15852286	    -39.45521205	     -3.42804782	      2.25233547	     15.31220409	      3.82920967	      7.98826551	     16.31000386	     -5.38203960	      2.09512930	     -5.70308443	     -2.66602572	      7.32905936	     -3.46639537	      1.61383475
      3.23000000	    -11.76501579	      2.65717797	      2.26980086	     -1.40474417	     -0.01153120	      0.40665187	     37.63305171	     -5.35936586	     -3.23897099	    -37.81366986	     -3.28526104	      2.74258052	     15.40906091	      3.18666994	      7.86806188	     16.24451072	     -4.94932778	      2.23271742	     -5.56163491	     -2.35477289	      7.31677450	     -3.43111589	      1.45893510
      3.23500000	    -11.65744560	      2.61190627	      2.39228158	     -1.39801646	     -0.01216070	      0.40670140	     37.61370294	     -5.32149774	     -3.27195540	    -36.07883486	     -3.19199248	      3.17158519	     15.56382724	      2.45661155	      7.75967669	     16.13222461	     -4.57734084	      2.35558977	     -5.39838273	     -1.92198565	      7.15548244	     -3.42581995	      1.16489623
      3.24000000	    -11.61122848	      2.58384038	      2.50869934	     -1.39122243	     -0.01294992	      0.40674410	     37.63662672	     -5.30670836	     -3.30286781	    -34.31547779	     -3.17813921	      3.61211043	     15.71779852	      1.79875265	      7.67728736	     16.05629229	     -4.23042990	      2.47724502	     -5.28345912	     -1.54818694	      7.07127586	     -3.43156384	      0.92138831
      3.24500000	    -11.57021782	      2.57317116	      2.65168360	     -1.38439784	     -0.01384831	      0.40679740	     37.62471997	     -5.32606722	     -3.34995275	    -32.50919722	     -3.15658928	      4.04515295	     15.86987929	      1.17291643	      7.62422073	     16.00359527	     -3.94992087	      2.63206592	     -5.19233615	     -1.22612055	      6.99506013	     -3.46495885	      0.66063333
      3.25000000	    -11.52075658	      2.56923578	      2.80311697	     -1.37758762	     -0.01479935	      0.40687596	     37.57097953	     -5.35664279	     -3.38911287	    -30.66146308	     -3.23544131	      4.45097002	     16.03087798	      0.56310108	      7.58142399	     15.98493980	     -3.72278728	      2.79308415	     -5.11779170	     -0.92266912	      6.90126298	     -3.50913075	      0.38129896
      3.25500000	    -11.50979405	      2.58636142	      2.98099331	     -1.37070634	     -0.01589168	      0.40695104	     37.52976336	     -5.43142636	     -3.47215177	    -28.80311121	     -3.29371536	      4.86379473	     16.16548333	      0.01661593	      7.57187497	     15.99793109	     -3.55783349	      2.98283048	     -5.06521691	     -0.69279543	      6.85792792	     -3.58352372	      0.08550874
      3.26000000	    -11.53239570	      2.59942841	      3.16114497	     -1.36383341	     -0.01707667	      0.40704927	     37.50748081	     -5.50890832	     -3.56687455	    -26.94238648	     -3.42101842	      5.30517264	     16.25593266	     -0.46347229	      7.56207633	     16.06238409	     -3.45891966	      3.20298751	     -5.03139421	     -0.51042333	      6.84679924	     -3.65724597	     -0.19103961
      3.26500000	    -11.43972543	      2.62533433	      3.36724399	     -1.35698683	     -0.01818061	      0.40717526	     37.31926088	     -5.60362722	     -3.66733051	    -25.04030766	     -3.60313313	      5.61206181	     16.53421318	     -1.04295962	      7.56145225	     16.13496221	     -3.41094861	      3.42004668	     -4.99249703	     -0.29593438	      6.69891447	     -3.74635560	     -0.53709342
      3.27000000	    -11.46258671	      2.64191420	      3.60146566	     -1.35015288	     -0.01944592	      0.40723985	     37.26159434	     -5.72641862	     -3.84649358	    -23.20204889	     -3.77103908	      6.03037559	     16.71246743	     -1.45359424	      7.56873294	     16.25945834	     -3.45511702	      3.67638834	     -4.96968506	     -0.14089400	      6.67406130	     -3.83040392	     -0.89232690
      3.27500000	    -11.52710655	      2.62844691	      3.83449815	     -1.34329770	     -0.02076528	      0.40731185	     37.24455523	     -5.82494637	     -4.07420106	    -21.41103520	     -3.94052196	      6.47362233	     16.79680632	     -1.79416542	      7.54673638	     16.41715765	     -3.55061385	      3.96146501	     -4.95372977	     -0.00813618	      6.69792207	     -3.88233414	     -1.22017965
      3.28000000	    -11.50672880	      2.60714315	      4.08720430	     -1.33653472	     -0.02198970	      0.40736688	     37.12698837	     -5.92431877	     -4.31907595	    -19.65488768	     -4.10478551	      6.88877449	     17.00827608	     -2.18366787	      7.51862061	     16.56792210	     -3.72326859	      4.26569265	     -4.92175452	      0.11632809	      6.60993209	     -3.92171791	     -1.60195732
      3.28500000	    -11.57149768	      2.55090652	      4.33849834	     -1.32968719	     -0.02328095	      0.40745576	     37.10429723	     -5.98908271	     -4.58993181	    -17.97675687	     -4.26148043	      7.29694386	     17.13421320	     -2.47614960	      7.44940762	     16.76183138	     -3.90734498	      4.56335328	     -4.87862158	      0.23654755	      6.63315157	     -3.93117639	     -1.95429166
      3.29000000	    -11.60156087	      2.47982855	      4.60439632	     -1.32291253	     -0.02452583	      0.40753216	     37.04972757	     -6.04640054	     -4.87226283	    -16.37342780	     -4.39589900	      7.70910875	     17.29734701	     -2.76461926	      7.36877483	     16.94900622	     -4.16418777	      4.87806007	     -4.82544831	      0.35824212	      6.60414070	     -3.92585037	     -2.33326876
      3.29500000	    -11.63634611	      2.38744747	      4.87570087	     -1.31611715	     -0.02575896	      0.40757731	     37.00253598	     -6.08573573	     -5.14867308	    -14.84977873	     -4.53209526	      8.10423416	     17.45927216	     -3.02979328	      7.26816139	     17.14135140	     -4.45515496	      5.19497115	     -4.76188873	      0.47522269	      6.58546202	     -3.88791253	     -2.71088035
      3.30000000	    -11.65983515	      2.27791116	      5.15609732	     -1.30931593	     -0.02696350	      0.40761710	     36.94583670	     -6.11118538	     -5.41725203	    -13.41135063	     -4.66022890	      8.48725162	     17.63753182	     -3.28337557	      7.14972903	     17.33156575	     -4.79037894	      5.51441904	     -4.68175261	      0.58644462	      6.55274895	     -3.83182085	     -3.09275603
      3.30500000	    -11.68867372	      2.15495166	      5.43754362	     -1.30248292	     -0.02816157	      0.40767149	     36.89881038	     -6.12002933	     -5.64999159	    -12.06560645	     -4.77900843	      8.85137972	     17.79487611	     -3.51579547	      7.01651470	     17.51775170	     -5.15433500	      5.82542026	     -4.59605393	      0.69181701	      6.53495625	     -3.76121009	     -3.46787216
      3.31000000	    -11.63228554	      2.01509443	      5.71129338	     -1.29558838	     -0.02925292	      0.40770460	     36.75003517	     -6.10701088	     -5.87488919	    -10.78712885	     -4.88417297	      9.24606225	     18.14234436	     -3.82941932	      6.85685545	     17.64968774	     -5.54407687	      6.16506415	     -4.42722047	      0.74369745	      6.42915567	     -3.65756376	     -3.83531280
      3.31500000	    -11.65525463	      1.86066857	      6.00491577	     -1.28865854	     -0.03040690	      0.40771652	     36.69338027	     -6.09209969	     -6.06065605	     -9.62213301	     -5.00462488	      9.57733402	     18.33207132	     -4.03618742	      6.68970907	     17.83070256	     -5.97323800	      6.47176704	     -4.29520733	      0.81500279	      6.41820532	     -3.54668623	     -4.21442873
      3.32000000	    -11.72577866	      1.68973969	      6.29360801	     -1.28167637	     -0.03158767	      0.40774645	     36.69494331	     -6.05930134	     -6.20434740	     -8.57159123	     -5.12605387	      9.88591253	     18.37171243	     -4.17753217	      6.50865614	     18.02807644	     -6.42430102	      6.72439145	     -4.21323055	      0.92025175	      6.46857784	     -3.42092432	     -4.56974903
      3.32500000	    -11.73468449	      1.50141708	      6.58846173	     -1.27463571	     -0.03267467	      0.40775225	     36.62094277	     -6.01514981	     -6.36908741	     -7.61078754	     -5.19798601	     10.26716288	     18.47864241	     -4.37086499	      6.29921016	     18.19285129	     -6.90114638	      6.98468486	     -4.05147837	      1.02683572	      6.45959855	     -3.26968586	     -4.94105961
      3.33000000	    -11.67129100	      1.30200939	      6.85206541	     -1.26752571	     -0.03367450	      0.40776787	     36.46786682	     -5.94058939	     -6.52036326	     -6.74290499	     -5.23264218	     10.70447927	     18.72189210	     -4.62919816	      6.06876834	     18.28395729	     -7.40710728	      7.27054001	     -3.80783194	      1.08774419	      6.38363288	     -3.08277264	     -5.27911413
